<svg id="Layer_1" enable-background="new 0 0 50 50" height="512" viewBox="0 0 50 50" width="512" xmlns="http://www.w3.org/2000/svg"><g id="_x36_1"><path d="m44.8 4.8h-39.6c-2.1 0-3.9 1.7-3.9 3.9v1.9h47.3v-1.9c.1-2.2-1.7-3.9-3.8-3.9zm-7.8 4.4c-.7 0-1.3-.6-1.3-1.3s.6-1.3 1.3-1.3 1.3.6 1.3 1.3-.6 1.3-1.3 1.3zm3.8 0c-.7 0-1.3-.6-1.3-1.3s.6-1.3 1.3-1.3 1.3.6 1.3 1.3-.6 1.3-1.3 1.3zm3.8 0c-.7 0-1.3-.6-1.3-1.3s.6-1.3 1.3-1.3 1.3.6 1.3 1.3-.6 1.3-1.3 1.3z"/><path d="m1.3 41.4c0 2.1 1.7 3.9 3.9 3.9h39.6c2.1 0 3.9-1.7 3.9-3.9v-28.8h-47.4zm34.9-7.1-10.2 5.9v-11.8l10.2-5.9zm-11.2-19.7 10.2 5.9-10.2 5.9-10.2-5.9zm-11.2 7.9 10.2 5.9v11.8l-10.2-5.9z"/></g></svg>