<svg id="Capa_1" enable-background="new 0 0 512 512" height="512" viewBox="0 0 512 512" width="512" xmlns="http://www.w3.org/2000/svg"><path d="m258.43 141.712c-1.511-.841-3.349-.841-4.859 0l-77.2 42.928 79.629 44.278 79.63-44.279z"/><path d="m271 363.299 77.348-43.01c1.586-.882 2.57-2.555 2.57-4.37v-105.455l-79.918 44.44z"/><path d="m161.082 315.919c0 1.815.984 3.488 2.57 4.37l77.348 43.01v-108.395l-79.918-44.439z"/><path d="m497 241h-26.693c-3.544-51.733-25.388-99.882-62.407-136.9-37.018-37.018-85.167-58.862-136.9-62.406v-26.694c0-8.284-6.716-15-15-15s-15 6.716-15 15v26.694c-51.733 3.544-99.882 25.388-136.9 62.406s-58.862 85.167-62.407 136.9h-26.693c-8.284 0-15 6.716-15 15s6.716 15 15 15h26.693c3.544 51.733 25.388 99.882 62.407 136.9 37.018 37.018 85.167 58.862 136.9 62.406v26.694c0 8.284 6.716 15 15 15s15-6.716 15-15v-26.693c51.733-3.544 99.882-25.388 136.9-62.406s58.862-85.167 62.407-136.9h26.693c8.284 0 15-6.716 15-15s-6.716-15.001-15-15.001zm-82.362 30h25.578c-7.26 89.973-79.242 161.955-169.216 169.216v-25.577c0-8.284-6.716-15-15-15s-15 6.716-15 15v25.577c-89.973-7.261-161.955-79.243-169.216-169.216h25.578c8.284 0 15-6.716 15-15s-6.716-15-15-15h-25.578c7.261-89.973 79.243-161.955 169.216-169.215v25.577c0 8.284 6.716 15 15 15s15-6.716 15-15v-25.577c89.973 7.26 161.955 79.242 169.216 169.215h-25.578c-8.284 0-15 6.716-15 15s6.716 15 15 15z"/></svg>