<svg clip-rule="evenodd" fill-rule="evenodd" height="1.707in" image-rendering="optimizeQuality" shape-rendering="geometricPrecision" text-rendering="geometricPrecision" viewBox="0 0 1707 1707" width="1.707in" xmlns="http://www.w3.org/2000/svg"><g id="Layer_x0020_1"><g id="_539816384"><path d="m16 891h-1v-1l-1-1-1-1-1-1-1-1-1-1v-1l-1-1-1-1v-1l-1-1v-1l-1-1c-4-7-6-16-6-25 0-8 2-15 5-22 1-1 1-2 2-4v-1l1-1 1-1v-1h1v-1l1-1v-1h1c1-2 3-3 4-5l188-188c21-21 55-21 76 0s21 55 0 75l-98 98h289c29 0 53 24 53 53 0 30-24 54-53 54h-289l98 97c21 21 21 55 0 76s-55 21-76 0zm891-470c0 30-24 53-54 53-29 0-53-23-53-53v-239l-98 98c-20 21-54 21-75 0s-21-55 0-76l188-188h1v-1h1l1-1 1-1 1-1 1-1 1-1h1v-1h1l1-1h1v-1h1 1v-1h1c7-4 15-6 24-6 8 0 16 2 23 5 1 1 2 1 3 2h1 1v1h1l1 1 1 1h1l1 1 1 1c2 1 3 3 4 4l189 188c21 21 21 55 0 76s-55 21-76 0l-97-98zm327 486c-30 0-53-24-53-54 0-29 23-53 53-53h291l-98-98c-21-20-21-54 0-75s55-21 75 0l189 188v1l1 1 1 1 1 1 1 1v1h1v1h1v1l1 1v1h1v1l1 1v1l1 1c3 7 6 15 6 24 0 8-2 16-5 23-1 1-1 2-2 3l-1 1v1l-1 1v1h-1v1l-1 1v1h-1v1c-2 2-3 3-4 4l-189 189c-20 21-54 21-75 0s-21-55 0-76l98-97zm-434 379c0-30 24-54 53-54 30 0 54 24 54 54v239l97-98c21-21 55-21 76 0s21 55 0 75l-189 189-1 1-1 1-1 1-1 1h-1v1h-1l-1 1h-1v1h-1v1h-1-1v1h-1-1v1c-7 3-16 6-25 6-8 0-15-2-22-5-1-1-2-1-4-2l-1-1h-1v-1h-1l-1-1h-1v-1h-1l-1-1c-2-2-3-3-5-4l-188-189c-21-20-21-54 0-75s55-21 75 0l98 98z" fill="#535454"/><g><path d="m879 428 164 95 165 95c16 10 26 27 26 45v380c0 21-12 39-30 48l-161 93-165 95c-17 9-37 9-52-1l-164-94-165-95c-17-10-26-28-26-46v-380c0-20 12-38 29-47l162-93 164-95c17-10 37-9 53 0z" fill="#b3b3b3"/><path d="m478 637c-5 8-7 17-7 26v190 190c0 18 9 36 26 46l165 95 164 94c8 5 17 8 26 8v-433z" fill="#eaebeb"/><path d="m1227 637-375 216v433h1c9-1 17-3 25-7l165-95 161-93c18-9 30-27 30-48v-190-190c0-9-3-18-7-26z" fill="#cccccd"/></g></g></g></svg>