<svg id="Layer_3" height="512" viewBox="0 0 64 64" width="512" xmlns="http://www.w3.org/2000/svg" data-name="Layer 3"><path d="m3.562 37.714-1.96.393c.133.668.293 1.346.472 2.014l1.932-.52q-.251-.931-.444-1.887z"/><path d="m4.574 41.45-1.89.652c.225.655.475 1.307.742 1.938l1.842-.78c-.249-.589-.483-1.198-.694-1.81z"/><path d="m3.06 33.875-2 .128c.045.7.113 1.389.2 2.061l1.987-.264c-.083-.625-.147-1.274-.187-1.925z"/><path d="m3.587 26.165-1.959-.4c-.14.683-.256 1.37-.346 2.042l1.983.265c.084-.626.192-1.272.322-1.907z"/><path d="m3.067 30-2-.136c-.046.686-.07 1.383-.071 2.07h2q.004-.971.071-1.934z"/><path d="m18.871 60.09c.624.292 1.264.566 1.9.814l.729-1.864c-.6-.232-1.193-.488-1.777-.761z"/><path d="m11.929 55.625c.518.441 1.063.874 1.619 1.288l1.193-1.606q-.777-.578-1.517-1.205z"/><path d="m15.251 58.089c.576.371 1.174.728 1.776 1.061l.967-1.751c-.562-.311-1.122-.644-1.661-.991z"/><path d="m8.96 52.742c.456.506.939 1.008 1.436 1.49l1.394-1.432q-.694-.677-1.344-1.4z"/><path d="m8.05 48.358-1.65 1.13c.393.573.8 1.135 1.227 1.67l1.573-1.239c-.4-.499-.783-1.019-1.15-1.561z"/><path d="m4.615 22.434-1.888-.66c-.228.65-.435 1.316-.617 1.977l1.928.531c.17-.618.362-1.24.577-1.848z"/><path d="m6.079 45.021-1.785.9c.312.621.646 1.233.994 1.819l1.721-1.017c-.324-.549-.637-1.123-.93-1.702z"/><path d="m6.132 18.879-1.783-.907c-.309.608-.6 1.238-.875 1.874l1.839.785c.254-.594.53-1.184.819-1.752z"/><path d="m27.208 3.394-.328-1.973c-.676.112-1.359.249-2.029.408l.459 1.946c.627-.148 1.265-.275 1.898-.381z"/><path d="m43.167 3.073c-.642-.247-1.3-.476-1.956-.681l-.594 1.908c.614.191 1.23.406 1.829.637z"/><path d="m39.215 1.844c-.673-.161-1.356-.3-2.03-.412l-.331 1.968c.63.106 1.268.235 1.9.385z"/><path d="m23.441 4.283-.589-1.911c-.662.2-1.321.432-1.961.678l.718 1.867c.597-.23 1.214-.443 1.832-.634z"/><path d="m31.062 3.015-.064-2c-.688.022-1.384.067-2.064.134l.2 1.991q.954-.093 1.928-.125z"/><path d="m10.517 12.52-1.483-1.343c-.465.513-.915 1.044-1.338 1.578l1.567 1.245q.602-.762 1.254-1.48z"/><path d="m8.111 15.555-1.646-1.137c-.388.563-.764 1.149-1.117 1.742l1.718 1.023c.334-.555.682-1.103 1.045-1.628z"/><path d="m16.424 7.534-1.074-1.686c-.583.371-1.159.765-1.71 1.173l1.187 1.609c.516-.38 1.053-.749 1.597-1.096z"/><path d="m19.822 5.673-.84-1.815c-.618.287-1.24.6-1.849.934l.959 1.754c.57-.312 1.153-.606 1.73-.873z"/><path d="m13.305 9.831-1.291-1.531c-.527.445-1.043.911-1.536 1.388l1.388 1.438c.462-.443.946-.879 1.439-1.295z"/><path d="m35.133 1.156c-.683-.069-1.378-.115-2.065-.138l-.066 2c.642.022 1.292.065 1.932.129z"/><path d="m52.091 52.913 1.387 1.441c.488-.469.973-.967 1.443-1.481l-1.477-1.35q-.654.717-1.353 1.39z"/><path d="m49.124 55.406 1.184 1.612c.55-.4 1.1-.834 1.627-1.279l-1.286-1.531q-.742.624-1.525 1.198z"/><path d="m42.335 59.105.713 1.868c.64-.244 1.283-.514 1.911-.8l-.836-1.817q-.878.401-1.788.749z"/><path d="m54.7 50.05 1.564 1.25c.425-.534.841-1.093 1.235-1.66l-1.645-1.14c-.368.527-.754 1.05-1.154 1.55z"/><path d="m45.855 57.483.957 1.756c.606-.33 1.207-.683 1.786-1.051l-1.073-1.688c-.542.343-1.103.674-1.67.983z"/><path d="m58.662 43.424 1.838.79c.27-.628.522-1.276.751-1.927l-1.887-.663c-.214.608-.45 1.214-.702 1.8z"/><path d="m60.729 35.985 1.981.273c.095-.681.166-1.374.215-2.06l-2-.139c-.04.641-.108 1.289-.196 1.926z"/><path d="m56.9 46.87 1.72 1.03c.351-.587.688-1.2 1-1.809l-1.781-.911q-.439.86-.939 1.69z"/><path d="m62.933 29.933-2 .129q.067.962.067 1.938v.126h2v-.126c0-.681-.022-1.377-.067-2.067z"/><path d="m59.945 39.776 1.928.536c.184-.664.348-1.34.486-2.013l-1.959-.399c-.129.623-.283 1.257-.455 1.876z"/><path d="m38.632 60.239.455 1.947c.668-.156 1.341-.337 2-.539l-.587-1.913c-.614.189-1.244.359-1.868.505z"/><path d="m60.745 28.137 1.983-.265c-.091-.681-.207-1.368-.341-2.041l-1.961.395q.19.944.319 1.911z"/><path d="m46.915 4.817c-.6-.332-1.226-.647-1.845-.935l-.843 1.818c.579.269 1.159.563 1.725.874z"/><path d="m50.4 7.048c-.554-.41-1.128-.8-1.7-1.173l-1.084 1.684c.539.345 1.075.714 1.594 1.1z"/><path d="m34.811 60.865.189 1.991c.684-.065 1.374-.155 2.053-.267l-.325-1.973c-.628.104-1.271.184-1.917.249z"/><path d="m32 61c-.328.008-.707-.006-1.06-.019l-.072 2c.364.013.73.02 1.095.02.323.005.652 0 .976-.014l-.062-2c-.291.013-.584.013-.877.013z"/><path d="m26.751 62.557c.674.115 1.364.21 2.051.279l.2-1.989c-.642-.066-1.287-.154-1.918-.262z"/><path d="m53.556 9.723c-.494-.48-1.011-.947-1.534-1.39l-1.293 1.526c.49.414.972.852 1.436 1.3z"/><path d="m59.979 24.342 1.929-.527c-.179-.658-.386-1.323-.612-1.978l-1.891.656c.213.607.406 1.234.574 1.849z"/><path d="m22.727 61.589c.658.206 1.329.391 2 .552l.466-1.945c-.623-.15-1.25-.323-1.865-.515z"/><path d="m58.708 20.682 1.842-.782c-.27-.633-.564-1.267-.875-1.88l-1.783.9c.29.58.565 1.169.816 1.762z"/><path d="m54.765 14.032 1.568-1.241c-.428-.541-.878-1.072-1.338-1.581l-1.482 1.342q.648.719 1.252 1.48z"/><path d="m56.958 17.225 1.72-1.021c-.348-.587-.723-1.174-1.114-1.744l-1.65 1.13q.548.8 1.044 1.635z"/><path d="m45.513 41.375 7.111 3.555-5.018 2.151.788 1.838 7-3a1 1 0 0 0 .568-1.194l-2-7-1.924.55 1.376 4.814-6.414-3.207v.564z"/><path d="m17 39.882-6.414 3.207 1.376-4.814-1.924-.55-2 7a1 1 0 0 0 .568 1.194l7 3 .788-1.838-5.018-2.151 7.111-3.555-1.487-.929z"/><path d="m26.641 11.768 4.359-3.633v6.665l1-.625 1 .625v-6.665l4.359 3.633 1.282-1.536-6-5a1 1 0 0 0 -1.282 0l-6 5z"/><path d="m17 24.805v15.077l9.553-4.777.894 1.79-8.96 4.48 12.513 7.821v-15.641z"/><path d="m45.513 41.375-8.96-4.48.894-1.79 9.553 4.777v-15.077l-14 8.75v15.641z"/><path d="m31 28v-13.196l-13.113 8.196 14.113 8.821 14.113-8.821-13.113-8.196v13.196z"/></svg>