<?xml version="1.0" encoding="UTF-8"?>
<svg xmlns="http://www.w3.org/2000/svg" xmlns:xlink="http://www.w3.org/1999/xlink" version="1.1" id="Capa_1" x="0px" y="0px" viewBox="0 0 511.1 511.1" style="enable-background:new 0 0 511.1 511.1;" xml:space="preserve" width="512" height="512">
<g>
	<g>
		<path style="fill:#B278D3;" d="M449.294,388.768c0.442-0.754,0.688-1.623,0.688-2.527v-70.483v-89.659v-59.574&#10;&#9;&#9;&#9;c0-1.786-0.953-3.437-2.5-4.33L257.202,52.335c-1.547-0.893-3.453-0.893-5,0L61.921,162.194c-1.547,0.893-2.5,2.544-2.5,4.33&#10;&#9;&#9;&#9;v219.717c0,1.167,0.413,2.272,1.127,3.15l194.764-101.943L449.294,388.768z"/>
		<path style="fill:#E0C9ED;" d="M255.313,287.448L60.548,389.391c0.378,0.466,0.837,0.871,1.373,1.18l190.28,109.858&#10;&#9;&#9;&#9;c1.547,0.893,3.453,0.893,5,0l190.28-109.858c0.764-0.441,1.381-1.068,1.812-1.803L255.313,287.448z"/>
	</g>
	<g>
		<path style="fill:none;stroke:#000000;stroke-width:20;stroke-linecap:round;stroke-linejoin:round;stroke-miterlimit:10;" d="&#10;&#9;&#9;&#9;M449.982,226.098v-59.574c0-1.786-0.953-3.437-2.5-4.33L257.202,52.335c-1.547-0.893-3.453-0.893-5,0L61.921,162.194&#10;&#9;&#9;&#9;c-1.547,0.893-2.5,2.544-2.5,4.33v219.717c0,1.786,0.953,3.437,2.5,4.33l190.28,109.858c1.547,0.893,3.453,0.893,5,0&#10;&#9;&#9;&#9;l190.28-109.858c1.547-0.893,2.5-2.544,2.5-4.33v-70.483"/>
		
			<line style="fill:none;stroke:#000000;stroke-width:20;stroke-linecap:round;stroke-linejoin:round;stroke-miterlimit:10;" x1="255.313" y1="10" x2="255.313" y2="287.448"/>
		
			<line style="fill:none;stroke:#000000;stroke-width:20;stroke-linecap:round;stroke-linejoin:round;stroke-miterlimit:10;" x1="255.313" y1="287.448" x2="481.411" y2="405.544"/>
		
			<line style="fill:none;stroke:#000000;stroke-width:20;stroke-linecap:round;stroke-linejoin:round;stroke-miterlimit:10;" x1="29.688" y1="405.544" x2="255.313" y2="287.448"/>
		
			<line style="fill:none;stroke:#000000;stroke-width:20;stroke-linecap:round;stroke-linejoin:round;stroke-miterlimit:10;" x1="122.041" y1="425.281" x2="315.058" y2="318.654"/>
		
			<line style="fill:none;stroke:#000000;stroke-width:20;stroke-linecap:round;stroke-linejoin:round;stroke-miterlimit:10;" x1="185.946" y1="458.857" x2="378.963" y2="352.23"/>
		
			<line style="fill:none;stroke:#000000;stroke-width:20;stroke-linecap:round;stroke-linejoin:round;stroke-miterlimit:10;" x1="196.594" y1="319.672" x2="386.756" y2="425.632"/>
		
			<line style="fill:none;stroke:#000000;stroke-width:20;stroke-linecap:round;stroke-linejoin:round;stroke-miterlimit:10;" x1="131.919" y1="358.248" x2="320.995" y2="463.599"/>
		
			<line style="fill:none;stroke:#000000;stroke-width:20;stroke-linecap:round;stroke-linejoin:round;stroke-miterlimit:10;" x1="449.982" y1="270.928" x2="449.982" y2="270.928"/>
	</g>
</g>















</svg>
