<svg id="Layer_1" viewBox="0 0 512 512" xmlns="http://www.w3.org/2000/svg" data-name="Layer 1"><path d="m475 38.566h-438a37.042 37.042 0 0 0 -37 37v304.134a37.041 37.041 0 0 0 37 37h172.667v32.735h-23.709a12 12 0 0 0 0 24h140.084a12 12 0 0 0 0-24h-23.709v-32.735h172.667a37.041 37.041 0 0 0 37-37v-304.134a37.042 37.042 0 0 0 -37-37zm-438 24h438a13.015 13.015 0 0 1 13 13v255.873h-464v-255.873a13.015 13.015 0 0 1 13-13zm241.333 386.868h-44.666v-32.734h44.666zm196.667-56.734h-438a13.015 13.015 0 0 1 -13-13v-24.26h464v24.26a13.015 13.015 0 0 1 -13 13zm-291.4-230.57v69.745a12 12 0 0 0 6 10.393l60.4 34.873a12 12 0 0 0 12 0l60.4-34.873a12 12 0 0 0 6-10.393v-69.745a12 12 0 0 0 -6-10.393l-60.4-34.872a12.008 12.008 0 0 0 -12 0l-60.4 34.872a12 12 0 0 0 -6 10.393zm24 20.785 36.4 21.016v42.032l-36.4-21.017zm60.4 63.048v-42.032l36.4-21.016v42.032zm-12-104.849 36.4 21.016-36.4 21.016-36.4-21.016zm116.137 116.4v43.626a12 12 0 0 1 -12 12h-43.623a12 12 0 0 1 0-24h31.623v-31.624a12 12 0 1 1 24 0zm-232.274-121.025v-43.623a12 12 0 0 1 12-12h43.623a12 12 0 0 1 0 24h-31.623v31.623a12 12 0 0 1 -24 0zm0 164.651v-43.624a12 12 0 0 1 24 0v31.624h31.623a12 12 0 0 1 0 24h-43.623a12 12 0 0 1 -12-12zm164.651-208.274a12 12 0 0 1 12-12h43.623a12 12 0 0 1 12 12v43.623a12 12 0 0 1 -24 0v-31.623h-31.623a12 12 0 0 1 -12-12z"/></svg>