<svg id="Layer_1" height="512" viewBox="0 0 512 512" width="512" xmlns="http://www.w3.org/2000/svg" data-name="Layer 1"><path d="m58 256c0 109.177 88.818 198.05 198 198.05s198-88.874 198-198.05c0-109.147-88.855-197.978-198-197.978s-198 88.83-198 197.978zm-16 0c0-117.956 96.005-213.978 214-213.978s214 96.022 214 213.978c0 118.027-96 214.05-214 214.05s-214-96.023-214-214.05zm-42 0c0-141.176 114.842-255.988 256-255.988 141.151 0 256 114.812 256 255.988s-114.849 255.988-256 255.988c-141.158 0-256-114.813-256-255.988zm277-121.957v100.957h101a21.005 21.005 0 0 1 0 42.01h-101v101.018a21 21 0 1 1 -42 0v-101.023h-101.01a21.005 21.005 0 0 1 0-42.01h101.01v-100.952a21 21 0 1 1 42 0z" fill-rule="evenodd"/></svg>