<svg fill="none" height="512" viewBox="0 0 97 97" width="512" xmlns="http://www.w3.org/2000/svg"><g fill="rgb(0,0,0)"><path d="m66.1455 13.1562c2.2083-4.26338 7.4546-5.92939 11.718-3.72109 4.2702 2.21179 5.9335 7.47029 3.7121 11.73549l-8.9288 17.1434c-.3573.6862-.8001 1.3124-1.312 1.8677 2.44 3.6128 3.1963 8.2582 1.6501 12.6558-.3523 1.002-.7242 2.0466-1.1108 3.1145-.1645.4546-.6923.659-1.1208.4351l-28.8106-15.0558c-.4666-.2438-.5746-.8639-.2219-1.2547.7171-.7943 1.4152-1.5917 2.0855-2.3761 3.1513-3.6881 7.8213-5.7743 12.5381-5.6197.0534-.1099.1097-.2193.1689-.3283z"/><path d="m37.7187 44.9911c-.3028-.1582-.6723-.1062-.9226.1263-1.7734 1.6478-3.5427 3.0861-5.1934 4.1101-5.5739 3.4578-10.1819 4.704-13.0435 5.1463-1.6736.2587-3.032 1.3362-3.6937 2.7335-.6912 1.4595-.6391 3.3721.7041 4.8522 1.48 1.6309 3.6724 3.7893 6.8345 6.3861.1854.1523.4298.2121.665.1649 2.2119-.4446 4.5148-.8643 6.5245-1.9149.5849-.3058 1.4606-.8505 2.5588-1.7923 1.0935-.9379 2.7579-.8372 3.7175.2247.9595 1.062.8509 2.6831-.2426 3.621-1.3886 1.1908-2.596 1.965-3.5534 2.4655-.7833.4094-1.603.7495-2.4399 1.0396-.6358.2203-.7846 1.0771-.2325 1.4619 1.5928 1.1099 3.3299 2.2689 5.223 3.4729.9682.6158 1.9229 1.1946 2.8588 1.7383.2671.1552.6002.141.8515-.0387 1.351-.9664 2.5145-1.9362 3.463-2.8261 2.1458-2.013 3.9974-4.231 5.4947-6.7819.7286-1.2414 2.3312-1.6783 3.5794-.9757s1.6693 2.2785.9406 3.52c-1.7525 2.9859-3.9213 5.6002-6.4356 7.9591-.4351.4082-.9081.8302-1.4172 1.2601-.4505.3805-.3701 1.1048.1642 1.3543 3.184 1.4867 5.8634 2.4904 7.7071 3.1131 2.6745.9033 5.5327-.1298 7.0673-2.4281 1.9401-2.9057 5.3476-8.3855 8.2732-15.0533.7591-1.7301 1.5313-3.6163 2.2883-5.5494.1485-.3793-.0133-.8092-.3743-.9978z"/><path d="m22.9737 37.9072c2.0802 0 3.7666-1.6864 3.7666-3.7667 0-2.0802-1.6864-3.7666-3.7666-3.7666-2.0803 0-3.7667 1.6864-3.7667 3.7666 0 2.0803 1.6864 3.7667 3.7667 3.7667z"/><path d="m12.7198 49.4854c2.0802 0 3.7666-1.6864 3.7666-3.7667 0-2.0802-1.6864-3.7666-3.7666-3.7666-2.0803 0-3.76667 1.6864-3.76668 3.7666 0 2.0803 1.68638 3.7667 3.76668 3.7667z"/></g></svg>