<svg id="Capa_1" enable-background="new 0 0 512 512" height="512" viewBox="0 0 512 512" width="512" xmlns="http://www.w3.org/2000/svg"><g><path d="m74.984 479.448-42.43-42.43c-4.358-4.358-7.651-9.442-9.855-14.893l-6.145 6.145c-13.668 13.668-13.668 35.829 0 49.497l17.677 17.677c13.668 13.668 35.829 13.668 49.497 0l6.145-6.144c-5.449-2.202-10.531-5.494-14.889-9.852z"/><path d="m499.886 211.28-35.195-6.9c-2.996-12.194-7.033-24.011-12.071-35.398l-59.358 59.358c1.792 8.942 2.738 18.19 2.738 27.66 0 77.32-62.68 140-140 140s-140-62.68-140-140 62.68-140 140-140c9.47 0 18.718.946 27.661 2.738l59.358-59.358c-11.386-5.038-23.203-9.075-35.397-12.071l-6.901-35.195c-1.381-7.038-7.549-12.114-14.72-12.114h-60.001c-7.171 0-13.34 5.076-14.72 12.114l-6.901 35.195c-21.038 5.169-40.965 13.415-59.465 24.608l-29.746-19.993c-5.953-4.001-13.903-3.229-18.974 1.843l-42.426 42.427c-5.071 5.071-5.843 13.022-1.843 18.974l19.993 29.746c-11.194 18.502-19.44 38.429-24.609 59.466l-35.195 6.9c-7.038 1.38-12.114 7.548-12.114 14.72v60c0 7.172 5.076 13.34 12.114 14.72l35.195 6.901c5.168 21.037 13.415 40.965 24.608 59.466l-19.993 29.745c-4 5.951-3.229 13.902 1.843 18.974l42.427 42.427c5.071 5.073 13.022 5.844 18.974 1.843l29.745-19.992c18.5 11.193 38.431 19.44 59.465 24.608l6.901 35.195c1.381 7.037 7.549 12.113 14.721 12.113h60c7.172 0 13.34-5.076 14.72-12.114l6.901-35.194c21.037-5.168 40.964-13.415 59.465-24.609l29.746 19.992c5.95 3.999 13.902 3.228 18.974-1.843l42.427-42.427c5.071-5.071 5.843-13.022 1.843-18.974l-19.993-29.745c11.193-18.501 19.44-38.429 24.608-59.466l35.195-6.901c7.038-1.379 12.114-7.547 12.114-14.719v-60c0-7.172-5.076-13.34-12.114-14.72z"/><path d="m498.218 34.065c6.935-13.063-7.22-27.217-20.282-20.282l-87.144 46.264 61.162 61.162z"/><path d="m178.254 333.745c11.502 11.504 25.534 20.47 41.176 25.999l214.317-214.317-67.175-67.175-214.314 214.315c5.531 15.643 14.497 29.677 25.996 41.178z"/></g></svg>