<svg id="Layer_1" enable-background="new 0 0 30 30" height="512" viewBox="0 0 30 30" width="512" xmlns="http://www.w3.org/2000/svg"><g><path d="m23.6749268 3h-17.3499756c-1.8299561 0-3.3199463 1.4899902-3.3199463 3.3199463v17.3500977c0 1.8399658 1.4899902 3.329956 3.3199463 3.329956h17.3499756c1.8300781 0 3.3200684-1.4899902 3.3200684-3.3299561v-17.3500976c-.0000001-1.8299561-1.4899903-3.3199463-3.3200684-3.3199463zm-9.8699952 2.6500244c.5500488 0 1 .4499512 1 1 0 .5499268-.4499512 1-1 1-.5599365 0-1-.4500732-1-1 0-.5500488.4400635-1 1-1zm-3.5 0c.5500488 0 1 .4499512 1 1 0 .5499268-.4499512 1-1 1-.5599365 0-1-.4500732-1-1 0-.5500488.4400635-1 1-1zm-3.3099365 0c.5599365 0 1 .4499512 1 1 0 .5499268-.4400635 1-.9899902 1h-.0100098c-.5500488 0-1-.4500732-1-1 0-.5500488.4499512-1 1-1zm18 17.9099121c0 .7900391-.6400146 1.4300537-1.4300537 1.4300537h-17.1300049c-.7900391 0-1.4299316-.6400146-1.4299316-1.4300537v-12.3099365c0-.7900391.6398926-1.4300537 1.4299316-1.4300537h9.5800781c.3099365 0 .6098633-.1599121.7700195-.4299316l.7099609-1.1600342c.2600098-.4200439.7199707-.6800537 1.2199707-.6800537h4.8499756c.7900391 0 1.4300537.6401367 1.4300537 1.4300537v14.579956zm-6.6101074-2.5100097h-6.7799072c-.5500488 0-1 .4500732-1 1 0 .5600586.4499512 1 1 1h6.7799072c.5500488 0 1-.4399414 1-1 0-.5499268-.4499512-1-1-1zm-4.8399658-5.5300293.4500732-.4499512v3.2099609c0 .5500488.4499512 1 1 1 .5499268 0 1-.4499512 1-1v-3.2099609l.4499512.4499512c.3900146.3901367 1.0200195.3901367 1.4100342 0 .3900146-.3898926.3900146-1.0198975.0098877-1.4199219l-2.1599121-2.1500244c-.2564535-.3071184-.9646444-.4558964-1.4199219 0l-2.1501465 2.1500244c-.3898926.3900146-.3898926 1.0300293 0 1.4199219.3901367.3901367 1.0200195.3901367 1.4100342 0z"/><g><path d="m17.8549805 15.5198975c-.3900146.3901367-1.0200195.3901367-1.4100342 0l-.4499512-.4499512v3.2099609c0 .5500488-.4500732 1-1 1-.5500488 0-1-.4499512-1-1v-3.2099609l-.4500732.4499512c-.3900146.3901367-1.0198975.3901367-1.4100342 0-.3898926-.3898926-.3898926-1.0299072 0-1.4199219l2.1501465-2.1500244c.4405622-.4411612 1.1616879-.3092508 1.4199219 0l2.1599121 2.1500244c.3801269.4000244.3801269 1.0300293-.0098877 1.4199219z"/></g><g><path d="m19.3848877 22.0499268c0 .5600586-.4499512 1-1 1h-6.7799072c-.5500488 0-1-.4399414-1-1 0-.5499268.4499512-1 1-1h6.7799072c.5500488 0 1 .4500732 1 1z"/></g></g></svg>