<svg id="Icons" height="512" viewBox="0 0 32 32" width="512" xmlns="http://www.w3.org/2000/svg"><path d="m10 21c0-.26 0-.51 0-.77a11 11 0 0 1 -4.59-6.23 9 9 0 0 0 5.59 16 8.74 8.74 0 0 0 3-.52 11 11 0 0 1 -4-8.48z"/><path d="m30 20.47a9.1 9.1 0 0 0 -3-6.19l-.41-.28a11 11 0 0 1 -6.59 7.25 11 11 0 0 1 -8 0v.55a8.84 8.84 0 0 0 2.84 5.79 8.75 8.75 0 0 0 1.12.89 9 9 0 0 0 13.82-5.66 9.24 9.24 0 0 0 .22-2.35z"/><path d="m24.81 12.85a9 9 0 0 1 -5 6.3 9 9 0 0 1 -7.62 0 9 9 0 0 1 -5-6.3 9.44 9.44 0 0 1 -.19-1.85 9 9 0 0 1 18 0 9.44 9.44 0 0 1 -.19 1.85z"/><path d="m25 11a9.44 9.44 0 0 1 -.19 1.85 9 9 0 0 1 -5 6.3 9 9 0 0 1 -7.62 0 9 9 0 0 1 -5-6.3 9.44 9.44 0 0 1 -.19-1.85 9 9 0 0 1 18 0z"/></svg>