<svg height="512" viewBox="0 0 512 512" width="512" xmlns="http://www.w3.org/2000/svg"><g id="_6_Gamma" data-name="6 Gamma"><path d="m436.36 55.51a30.23 30.23 0 0 0 -13.14-41.28c-14.76-7.39-32.75-1.15-40.52 13.4l-80.27 150.37a9 9 0 0 1 -16.61-1.87l-11.21-41.13a238.4 238.4 0 0 0 -32.67-71.3c-26.62-39.36-55.69-56.8-86.39-51.89-25.47 4.08-47.36 23.34-65.06 57.24a251.29 251.29 0 0 0 -17.25 42.6 30.23 30.23 0 1 0 58.13 16.63 191.55 191.55 0 0 1 13.12-32c10.15-19.15 18.5-24.42 20.62-24.75 1.63-.26 11.54 3.56 26.76 26a178.59 178.59 0 0 1 24.4 53.28l25.73 94.69a60.8 60.8 0 0 1 -12.75 55.5q-3 3.47-5.94 7.56c-12.8 17.69-23.13 41.65-29.08 67.46-9.6 41.71-6.23 80 9 102.44 8.27 12.16 20.2 20 33.58 22a46 46 0 0 0 7 .52c13.41 0 33.74-5.62 53.46-32.86 12.81-17.68 23.13-41.64 29.08-67.46 8.91-38.69 6.64-74.43-5.9-97.3a53 53 0 0 1 4.39-38.88zm-165.19 332.86c-2.86 12.42-10.53 21.69-14.58 30.09a3.78 3.78 0 0 1 -7.18-1.82c.29-7.64-2.38-18 0-28.27 2.87-12.43 10.54-21.7 14.58-30.09a3.79 3.79 0 0 1 7.19 1.81c-.31 7.64 2.36 17.96-.01 28.28z"/></g></svg>