<svg fill="none" height="512" viewBox="0 0 24 24" width="512" xmlns="http://www.w3.org/2000/svg"><g id="Edit / Move_Horizontal"><path id="Vector (Stroke)" clip-rule="evenodd" d="m6.70711 8.29289c.39052.39053.39052 1.02369 0 1.41422l-1.2929 1.29289h13.17159l-1.2929-1.29289c-.3905-.39053-.3905-1.02369 0-1.41422.3905-.39052 1.0237-.39052 1.4142 0l3 3.00001c.3905.3905.3905 1.0237 0 1.4142l-3 3c-.3905.3905-1.0237.3905-1.4142 0s-.3905-1.0237 0-1.4142l1.2929-1.2929h-13.17159l1.2929 1.2929c.39052.3905.39052 1.0237 0 1.4142-.39053.3905-1.02369.3905-1.41422 0l-3-3c-.39052-.3905-.39052-1.0237 0-1.4142l3-3.00001c.39053-.39052 1.02369-.39052 1.41422 0z" fill="rgb(0,0,0)" fill-rule="evenodd"/></g></svg>