<svg id="Capa_1" enable-background="new 0 0 512 512" height="512" viewBox="0 0 512 512" width="512" xmlns="http://www.w3.org/2000/svg"><g><path d="m328 111c-46.161 0-81.349 36.935-95.961 73 14.612 36.065 49.8 73 95.961 73s81.349-36.935 95.961-73c-14.612-36.065-49.8-73-95.961-73zm0 120c-25.916 0-47-21.084-47-47s21.084-47 47-47 47 21.084 47 47-21.084 47-47 47z"/><circle cx="328" cy="184" r="17"/><path d="m328 0c-101.458 0-184 82.542-184 184 0 45.341 16.494 86.896 43.785 119.002l-19.785 19.785-13.394-13.394c-5.842-5.843-15.308-5.859-21.172-.042l-118.772 117.854c-9.318 9.246-14.662 22.077-14.662 35.203 0 27.345 22.247 49.592 49.592 49.592 13.126 0 25.957-5.344 35.204-14.662l117.852-118.773c5.819-5.865 5.8-15.33-.042-21.172l-13.393-13.393 19.785-19.785c32.106 27.291 73.661 43.785 119.002 43.785 101.458 0 184-82.542 184-184s-82.542-184-184-184zm126.143 188.998c-18.827 53.28-67.956 98.002-126.143 98.002-58.123 0-107.293-44.654-126.143-98.002-1.143-3.234-1.143-6.761 0-9.995 9.281-26.265 26.018-50.417 47.127-68.005 48.011-40.004 110.007-40.015 158.032 0 21.109 17.588 37.846 41.74 47.127 68.005 1.143 3.233 1.143 6.761 0 9.995z"/></g></svg>