<svg id="project_plan" viewBox="0 0 24 24" xmlns="http://www.w3.org/2000/svg"><path d="m9.75 8.75v4.5c0 .55.45 1 1 1h10c.55 0 1-.45 1-1v-4.5c0-.55-.45-1-1-1h-10c-.55 0-1 .45-1 1zm8.75 3h-6c-.41 0-.75-.34-.75-.75s.34-.75.75-.75h6c.41 0 .75.34.75.75s-.34.75-.75.75z"/><path d="m9.75 16.75v5c0 .55.45 1 1 1h9.25c.97 0 1.75-.78 1.75-1.75v-4.25c0-.55-.45-1-1-1h-10c-.55 0-1 .45-1 1zm8.75 3h-6c-.41 0-.75-.34-.75-.75s.34-.75.75-.75h6c.41 0 .75.34.75.75s-.34.75-.75.75z"/><path d="m21.75 5.25v-2.25c0-.97-.78-1.75-1.75-1.75h-16c-.97 0-1.75.78-1.75 1.75v2.25c0 .55.45 1 1 1h17.5c.55 0 1-.45 1-1z"/><rect height="6.5" rx="1" width="6" x="2.25" y="7.75"/><path d="m7.25 15.75h-4c-.55 0-1 .45-1 1v4.25c0 .97.78 1.75 1.75 1.75h3.25c.55 0 1-.45 1-1v-5c0-.55-.45-1-1-1z"/></svg>