<svg id="Layer_1" viewBox="0 0 512 512" xmlns="http://www.w3.org/2000/svg" data-name="Layer 1"><path d="m419.627 68.693c-43.769-43.769-101.962-67.873-163.86-67.873s-120.091 24.104-163.859 67.873-67.874 101.962-67.874 163.86c0 62.325 24.39 120.803 68.677 164.66 8.83 8.743 23.076 8.675 31.819-.155 8.744-8.829 8.675-23.075-.155-31.819-35.687-35.341-55.341-82.463-55.341-132.686 0-102.965 83.768-186.733 186.732-186.733s186.733 83.768 186.733 186.733c0 87.906-61.063 161.808-142.996 181.548l3.938-3.938c8.786-8.787 8.786-23.033 0-31.82-8.787-8.787-23.033-8.787-31.82 0l-47.534 47.534c-8.786 8.787-8.786 23.033 0 31.82l47.534 47.534c4.394 4.394 10.152 6.59 15.91 6.59s11.517-2.196 15.91-6.59c8.786-8.787 8.786-23.033 0-31.82l-11.869-11.869c48.298-7.448 92.845-29.919 128.054-65.128 43.769-43.769 67.873-101.962 67.873-163.86s-24.104-120.091-67.873-163.86z"/><path d="m263.766 346.515c12.427 0 22.5-10.073 22.5-22.5v-182.924c0-7.979-4.226-15.361-11.105-19.401-6.88-4.042-15.386-4.135-22.354-.25l-55.464 30.932c-10.853 6.053-14.744 19.757-8.691 30.61 6.051 10.854 19.759 14.744 30.609 8.692l22.005-12.272v144.613c0 12.427 10.073 22.5 22.5 22.5z"/></svg>