<svg id="Layer_1" enable-background="new 0 0 32 32" height="512" viewBox="0 0 32 32" width="512" xmlns="http://www.w3.org/2000/svg"><path d="m12.7 22.1c.2.1.3.1.5.1s.4 0 .5-.1l7-4.2c.3-.2.5-.5.5-.9s-.2-.7-.5-.9l-7-4.2c-.3-.2-.7-.2-1 0s-.5.5-.5.9v8.4c0 .4.2.7.5.9z"/><path d="m18 5.2.5-.4c.5-.3.6-.9.3-1.4s-.9-.6-1.4-.3l-3 2c-.2.2-.4.5-.4.8s.1.6.3.8l3 3c.2.2.4.3.7.3s.5-.1.7-.3c.4-.4.4-1 0-1.4l-1.2-1.2c4.8.8 8.5 4.9 8.5 9.9 0 5.5-4.5 10-10 10s-10-4.5-10-10c0-3.4 1.7-6.5 4.5-8.4.5-.3.6-.9.3-1.4-.3-.4-.9-.6-1.3-.2-3.5 2.2-5.5 5.9-5.5 10 0 6.6 5.4 12 12 12s12-5.4 12-12c0-5.9-4.3-10.8-10-11.8z"/></svg>