<svg id="Layer_2" enable-background="new 0 0 32 32" height="512" viewBox="0 0 32 32" width="512" xmlns="http://www.w3.org/2000/svg"><path d="m26.59003 12.04999c.88995-6.31-4.20002-12.09998-10.57001-12.04999-6.36005-.04999-11.46002 5.73999-10.57001 12.04999-3.23004 1.83001-5.42999 5.29999-5.42999 9.27997 0 5.88 4.78998 10.67004 10.66998 10.67004 1.94 0 3.76001-.53003 5.33002-1.44 1.57001.90997 3.38995 1.44 5.32996 1.44 10.98004-.08002 14.66003-14.60999 5.24005-19.95001zm-2.06-.90003c-2.75-.89996-6.09003-.5-8.51001.96002-1.57001-.90997-3.39001-1.44-5.33002-1.44-1.10999 0-2.16998.16998-3.17999.47998-.01001-.15997-.02002-.32-.02002-.47998.5-11.63 17.22998-11.14001 17.04004.47998zm-13.22003 6.63001c-1.59003-1.06-2.81-2.64996-3.40997-4.5 1.94995-.70996 4.34998-.60999 6.20996.23999-1.25 1.16003-2.21998 2.62005-2.79999 4.26001zm6.61999-4.26001c1.87-.84998 4.27002-.94995 6.21002-.23999-.60004 1.85004-1.81 3.44-3.41003 4.5-.57996-1.63996-1.54999-3.09998-2.79999-4.26001zm-7.23999 16.35004c-8.42999.01-11.66998-11.10004-4.71002-15.65003.86005 2.44 2.59003 4.47003 4.81 5.73004-.06.44995-.09998.90997-.09998 1.37994 0 3.09003 1.32001 5.86005 3.41998 7.81006-1.04998.46998-2.20001.72999-3.41998.72999zm5.33002-1.89002c-1.95001-1.56-3.20001-3.96002-3.20001-6.65002 0-.15997.02002-.31995.02997-.47998 1 .31 2.07001.47998 3.17004.47998 1.10999 0 2.16998-.16998 3.17999-.47998.01001.16003.01996.32001.01996.47998 0 2.69-1.25 5.09002-3.19995 6.65002zm5.32996 1.89002c-1.20996 0-2.37-.26001-3.41998-.72998 2.10004-1.95001 3.41998-4.72003 3.41998-7.81006 0-.46997-.03998-.92999-.09998-1.37994 2.22998-1.26001 3.95001-3.29004 4.81-5.73004 6.96002 4.54998 3.72003 15.66002-4.71002 15.65002z"/></svg>