<?xml version="1.0" encoding="iso-8859-1"?>
<!-- Generator: Adobe Illustrator 21.0.0, SVG Export Plug-In . SVG Version: 6.00 Build 0)  -->
<svg xmlns="http://www.w3.org/2000/svg" xmlns:xlink="http://www.w3.org/1999/xlink" version="1.1" id="Capa_1" x="0px" y="0px" viewBox="0 0 512 512" style="enable-background:new 0 0 512 512;" xml:space="preserve" width="512" height="512">
<g>
	<path d="M370.789,227l25.605,25.605c4.307,4.321,10.767,5.64,16.348,3.252c5.61-2.314,9.258-7.793,9.258-13.857v-60   c0-8.291-6.709-15-15-15H197c-8.291,0-15,6.709-15,15v60c0,6.064,3.647,11.543,9.258,13.857c5.61,2.358,12.056,1.04,16.348-3.252   L233.211,227H272v158.789l-25.605,25.605c-4.292,4.292-5.581,10.737-3.252,16.348c2.314,5.61,7.793,9.258,13.857,9.258h90   c6.064,0,11.543-3.647,13.857-9.258c2.329-5.61,1.04-12.056-3.252-16.348L332,385.789V227H370.789z"/>
	<path d="M482,347c8.291,0,15-6.709,15-15v-60c0-8.291-6.709-15-15-15s-15,6.709-15,15v60C467,340.291,473.709,347,482,347z"/>
	<path d="M272,467c-8.291,0-15,6.709-15,15s6.709,15,15,15h60c8.291,0,15-6.709,15-15s-6.709-15-15-15H272z"/>
	<path d="M497,452v-60c0-8.291-6.709-15-15-15s-15,6.709-15,15v60c-8.291,0-15,6.709-15,15h-60c-8.291,0-15,6.709-15,15   s6.709,15,15,15h60c0,8.291,6.709,15,15,15h30c8.291,0,15-6.709,15-15v-30C512,458.709,505.291,452,497,452z"/>
	<path d="M497,92h-30c-8.291,0-15,6.709-15,15H152c0-8.291-6.709-15-15-15h-30c-8.291,0-15,6.709-15,15v30c0,8.291,6.709,15,15,15   v300c-8.291,0-15,6.709-15,15v30c0,8.291,6.709,15,15,15h30c8.291,0,15-6.709,15-15h60c8.291,0,15-6.709,15-15s-6.709-15-15-15h-60   c0-8.291-6.709-15-15-15V152c8.291,0,15-6.709,15-15h300c0,8.291,6.709,15,15,15v60c0,8.291,6.709,15,15,15s15-6.709,15-15v-60   c8.291,0,15-6.709,15-15v-30C512,98.709,505.291,92,497,92z"/>
	<path d="M15,392h62V170.296c-9.139-8.243-15-20.048-15-33.296v-30c0-24.814,20.186-45,45-45h30c13.248,0,25.052,5.861,33.296,15   H392V15c0-8.284-6.716-15-15-15H15C6.716,0,0,6.716,0,15v362C0,385.284,6.716,392,15,392z"/>
</g>















</svg>
