<svg id="Layer_1" enable-background="new 0 0 512 512" viewBox="0 0 512 512" xmlns="http://www.w3.org/2000/svg"><path d="m171.4 65.27v364h285.19c11.59 0 21.09-9.52 21.09-21.09v-321.82c0-11.59-9.5-21.09-21.09-21.09zm142.67 85.72c2.21 1.64 2.66 4.76 1.02 6.97s-4.76 2.66-6.97 1.05c-10.23-7.62-24.01-8.53-35.21-2.38-2.41 1.33-5.44.45-6.77-1.96s-.45-5.44 1.98-6.77c14.59-8.05 32.57-6.86 45.95 3.09zm-13.44 192.7c-4.82 3.77-10.94-3.03-6.6-7.43l3.32-4.31c2.18-3.74 7.77-3.06 9.04 1.05 1.28 4.03 3.77 7.51 7.31 9.67 2.35 1.45 3.09 4.51 1.64 6.86-1.42 2.35-4.51 3.12-6.86 1.67-3.06-1.87-5.75-4.48-7.85-7.51zm-74.75-17.92c-3.12-5.78 5.67-10.49 8.79-4.71 3.17 5.9 9.75 7.8 15.85 5.84 3.46-1.11 6.69-3.46 9.44-6.63 3.23-3.69 9.27-.96 8.7 3.85-.74 6.43 2.04 13.07 7.63 15.96 2.44 1.25 3.4 4.25 2.15 6.72-1.28 2.44-4.28 3.4-6.72 2.13-5.98-3.09-10.29-8.79-12.16-15.31-11.6 7.12-26.93 4.71-33.68-7.85zm18.88-58.79c3.32-5.67 11.91-.62 8.59 5.02-6.8 11.65-12.22 20.41-16.98 29.82-1.25 2.47-4.25 3.43-6.72 2.21-2.47-1.25-3.43-4.25-2.21-6.72 4.45-8.76 11.56-20.58 17.32-30.33zm16.1-30.07c1.11-2.52 4.05-3.66 6.58-2.52 2.52 1.11 3.63 4.05 2.52 6.58l-5.36 11c-1.28 2.44-4.28 3.37-6.72 2.13-2.44-1.28-3.4-4.31-2.13-6.75zm80.11-77.9c-2.21 1.62-5.33 1.16-6.97-1.05s-1.19-5.33 1.02-6.97c13.41-9.95 31.32-11.17 45.95-3.09 2.44 1.33 3.32 4.37 1.98 6.77s-4.37 3.29-6.77 1.96c-11.2-6.15-24.98-5.25-35.21 2.38zm14.08 177.25c4.34 4.42-1.79 11.2-6.6 7.43-2.1 3.03-4.79 5.64-7.85 7.51-2.35 1.45-5.44.68-6.86-1.67-1.45-2.35-.71-5.41 1.64-6.86 3.54-2.15 6.04-5.64 7.31-9.67 1.28-4.11 6.86-4.79 9.04-1.05zm59.39-15.19c1.3-2.44 4.31-3.34 6.75-2.04s3.34 4.34 2.04 6.75c-6.77 12.56-22.11 14.97-33.7 7.85-1.84 6.52-6.15 12.22-12.16 15.31-2.44 1.28-5.44.31-6.72-2.13-1.25-2.47-.28-5.47 2.15-6.72 5.58-2.89 8.36-9.52 7.63-15.96-.57-4.82 5.5-7.54 8.7-3.85 5.02 5.75 11.65 9.04 19.11 6.41 2.66-.95 4.81-3.1 6.2-5.62zm-18.71-49.07c-3.32-5.64 5.27-10.69 8.59-5.02 5.78 9.84 12.81 21.46 17.32 30.33 1.22 2.47.26 5.47-2.21 6.72-2.47 1.22-5.47.26-6.69-2.21-4.79-9.44-10.18-18.12-17.01-29.82zm-16.61-31.04c-1.11-2.52 0-5.47 2.52-6.58 2.52-1.13 5.47 0 6.58 2.52l5.1 10.43c1.28 2.44.34 5.47-2.1 6.75-2.44 1.25-5.47.31-6.72-2.13zm7.09-72.14c1.11-2.52 4.03-3.69 6.55-2.58 2.55 1.11 3.69 4.03 2.58 6.55-3.71 8.56-13.58 32.68-13.52 41.41 0 1.42.17 3 .45 4.68.43 2.72-1.42 5.27-4.14 5.73s-5.27-1.42-5.73-4.11c-.65-4.05-.82-8.36.03-12.25 2.72-12.53 8.5-27.39 13.78-39.43zm-132.47 3.97c-1.11-2.52.06-5.44 2.58-6.55s5.44.06 6.55 2.58c5.27 12.1 11.03 26.84 13.78 39.43.85 3.88.68 8.19.03 12.25-1.08 6.46-10.91 4.85-9.86-1.62.48-2.92.68-5.78.09-8.53-2.62-12-8.15-26.03-13.17-37.56zm-110.23 197.88c-22.65-22.65-59.36-22.65-82.01 0s-22.65 59.36 0 82.01 59.36 22.65 82.01 0c22.64-22.65 22.64-59.36 0-82.01zm-40.99-26.98c24.83 0 46.97 13.38 58.9 34.02v-317.43c0-7.54-16.24-19.56-28.2-24.29-9.24-3.63-18.71-6.32-30.13-6.32-10.57.11-25 5.44-37.11 12.19-12.02 6.69-21.46 14.2-21.46 18.43h-.03v315.91c12.13-19.79 33.79-32.51 58.03-32.51zm17.97 50.03c-15.99-15.96-43.4-4.59-43.4 17.97s27.41 33.93 43.4 17.97c9.92-9.92 9.92-26.02 0-35.94zm-17.97-17.44c19.56 0 35.4 15.85 35.4 35.4s-15.85 35.4-35.4 35.4-35.4-15.85-35.4-35.4 15.84-35.4 35.4-35.4z"/></svg>