<svg clip-rule="evenodd" fill-rule="evenodd" height="512" stroke-linejoin="round" stroke-miterlimit="2" viewBox="0 0 24 24" width="512" xmlns="http://www.w3.org/2000/svg"><g id="Icon"><path d="m12 1.25c5.933 0 10.75 4.817 10.75 10.75s-4.817 10.75-10.75 10.75-10.75-4.817-10.75-10.75 4.817-10.75 10.75-10.75zm4.579 10.041-6.385-3.483c-.25-.136-.554-.131-.799.015-.245.145-.395.409-.395.694v6.966c0 .285.15.549.395.694.245.146.549.151.799.015l6.385-3.483c.26-.142.421-.414.421-.709s-.161-.567-.421-.709z"/></g></svg>