<svg clip-rule="evenodd" fill-rule="evenodd" stroke-linejoin="round" stroke-miterlimit="2" viewBox="0 0 24 24" xmlns="http://www.w3.org/2000/svg"><g id="Icon"><path d="m.75 7.5c0-.464.184-.909.513-1.237.328-.329.773-.513 1.237-.513h8.5c.464 0 .909.184 1.237.513.329.328.513.773.513 1.237v8.5c0 .464-.184.909-.513 1.237-.328.329-.773.513-1.237.513h-8.5c-.464 0-.909-.184-1.237-.513-.329-.328-.513-.773-.513-1.237zm1.5 0v8.5c0 .066.026.13.073.177s.111.073.177.073h8.5c.066 0 .13-.026.177-.073s.073-.111.073-.177v-8.5c0-.066-.026-.13-.073-.177s-.111-.073-.177-.073h-8.5c-.066 0-.13.026-.177.073s-.073.111-.073.177z"/><path d="m16.25 7.5c0-.966.783-1.75 1.75-1.75h3.5c.967 0 1.75.784 1.75 1.75v8.5c0 .966-.783 1.75-1.75 1.75h-3.5c-.967 0-1.75-.784-1.75-1.75zm1.5 0v8.5c0 .138.112.25.25.25h3.5c.138 0 .25-.112.25-.25v-8.5c0-.138-.112-.25-.25-.25h-3.5c-.138 0-.25.112-.25.25z"/><path d="m1.5 8.75h10.5c.414 0 .75.336.75.75v4.5c0 .414-.336.75-.75.75h-10.5c-.414 0-.75-.336-.75-.75v-4.5c0-.414.336-.75.75-.75z"/><path d="m17 8.75h5.5c.414 0 .75.336.75.75v4.5c0 .414-.336.75-.75.75h-5.5c-.414 0-.75-.336-.75-.75v-4.5c0-.414.336-.75.75-.75z"/><path d="m12.5.75h4c.414 0 .75.336.75.75v1.5c0 .199-.079.39-.22.53l-2 2c-.293.293-.767.293-1.06 0l-2-2c-.141-.14-.22-.331-.22-.53v-1.5c0-.414.336-.75.75-.75z"/><path d="m11.75 22.5v-1.5c0-.199.079-.39.22-.53l2-2c.293-.293.767-.293 1.06 0l2 2c.141.14.22.331.22.53v1.5c0 .414-.336.75-.75.75h-4c-.414 0-.75-.336-.75-.75z"/><path d="m4.25 6.5c0-.414.336-.75.75-.75s.75.336.75.75v3c0 .414-.336.75-.75.75s-.75-.336-.75-.75z"/><path d="m4.25 14c0-.414.336-.75.75-.75s.75.336.75.75v3c0 .414-.336.75-.75.75s-.75-.336-.75-.75z"/><path d="m7.75 6.5c0-.414.336-.75.75-.75s.75.336.75.75v3c0 .414-.336.75-.75.75s-.75-.336-.75-.75z"/><path d="m19 6.5c0-.414.336-.75.75-.75s.75.336.75.75v3c0 .414-.336.75-.75.75s-.75-.336-.75-.75z"/><path d="m7.75 14c0-.414.336-.75.75-.75s.75.336.75.75v3c0 .414-.336.75-.75.75s-.75-.336-.75-.75z"/><path d="m19 14c0-.414.336-.75.75-.75s.75.336.75.75v3c0 .414-.336.75-.75.75s-.75-.336-.75-.75z"/><path d="m15.25 19c0 .414-.336.75-.75.75s-.75-.336-.75-.75v-14c0-.414.336-.75.75-.75s.75.336.75.75z"/></g></svg>