<svg clip-rule="evenodd" fill-rule="evenodd" height="512" stroke-linejoin="round" stroke-miterlimit="2" viewBox="0 0 24 24" width="512" xmlns="http://www.w3.org/2000/svg"><g id="Icon"><path d="m1.25 6.25v-1.75c0-1.795 1.455-3.25 3.25-3.25h15c1.795 0 3.25 1.455 3.25 3.25v1.75zm21.5 1.5v11.75c0 1.795-1.455 3.25-3.25 3.25h-15c-1.795 0-3.25-1.455-3.25-3.25v-11.75zm-3.75 5.25c.276 0 .5-.224.5-.5v-2c0-.276-.224-.5-.5-.5h-14c-.276 0-.5.224-.5.5v2c0 .276.224.5.5.5zm0 7c.133 0 .26-.053.354-.146.093-.094.146-.221.146-.354v-3.5c0-.133-.053-.26-.146-.354-.094-.093-.221-.146-.354-.146h-4c-.133 0-.26.053-.354.146-.093.094-.146.221-.146.354v3.5c0 .133.053.26.146.354.094.093.221.146.354.146zm-7.5 0c.276 0 .5-.224.5-.5v-3.5c0-.276-.224-.5-.5-.5h-6.5c-.276 0-.5.224-.5.5v3.5c0 .276.224.5.5.5zm-3.5-16.75c-.414 0-.75.336-.75.75s.336.75.75.75.75-.336.75-.75-.336-.75-.75-.75zm2.5 0c-.414 0-.75.336-.75.75s.336.75.75.75.75-.336.75-.75-.336-.75-.75-.75zm-5 0c-.414 0-.75.336-.75.75s.336.75.75.75.75-.336.75-.75-.336-.75-.75-.75z"/></g></svg>