<svg fill="none" height="512" viewBox="0 0 32 32" width="512" xmlns="http://www.w3.org/2000/svg"><g clip-rule="evenodd" fill="rgb(0,0,0)" fill-rule="evenodd"><path d="m11.0607 5.93934c.5857.58579.5857 1.53553 0 2.12132l-4.93938 4.93934 4.93938 4.9393c.5857.5858.5857 1.5356 0 2.1214-.5858.5857-1.53557.5857-2.12136 0l-6-6c-.58579-.5858-.58579-1.5356 0-2.1214l6-5.99996c.58579-.58579 1.53556-.58579 2.12136 0z"/><path d="m2.5 13c0-.8284.67157-1.5 1.5-1.5h12c3.5804 0 7.0142 1.4223 9.5459 3.9541 2.5318 2.5317 3.9541 5.9655 3.9541 9.5459 0 .8284-.6716 1.5-1.5 1.5s-1.5-.6716-1.5-1.5c0-2.7848-1.1062-5.4555-3.0754-7.4246-1.9691-1.9692-4.6398-3.0754-7.4246-3.0754h-12c-.82843 0-1.5-.6716-1.5-1.5z"/></g></svg>