<svg id="Layer_1" enable-background="new 0 0 32 32" height="512" viewBox="0 0 32 32" width="512" xmlns="http://www.w3.org/2000/svg"><g><path d="m29.174 8.871c0-.146-.078-.274-.196-.344l-7.98-8.305c-.001-.001-.003-.001-.004-.002-.048-.05-.11-.08-.179-.1-.017-.005-.031-.007-.048-.01-.021-.002-.038-.01-.059-.01h-17.461c-.221 0-.4.18-.4.4v31c0 .221.18.4.4.4h25.507c.221 0 .4-.18.4-.4v-22.532c.008-.031.02-.063.02-.097zm-8.065-7.378 6.705 6.978h-6.705zm-17.462 29.607v-30.2h16.661v7.971c0 .221.18.4.4.4h7.645v21.829z"/><path d="m11.594 29.123 4.949-1.19c.071-.017.137-.054.189-.105l9.959-9.959c.156-.156.156-.41 0-.566l-1.88-1.881c-.001-.001-.002-.001-.003-.002l-1.877-1.875c-.154-.156-.409-.156-.565 0l-9.96 9.959c-.052.053-.089.118-.105.189l-1.19 4.947c-.064.312.242.537.483.483zm4.65-1.941-4.205 1.012 1.012-4.203 6.973-6.972 3.191 3.192zm7.537-7.537-3.191-3.192 2.059-2.059 1.594 1.592c.001.001.001.002.002.003l1.597 1.597z"/></g></svg>