<svg id="Layer_1" height="512" viewBox="0 0 66 66" width="512" xmlns="http://www.w3.org/2000/svg"><g style="fill:none;stroke:#000;stroke-linecap:round;stroke-linejoin:round;stroke-miterlimit:10;stroke-width:2"><path d="m53.5 23.3h4.8c2.2 0 4 1.8 4 4v32.7c0 2.2-1.8 4-4 4h-50.6c-2.2 0-4-1.8-4-4v-32.7c0-2.2 1.8-4 4-4h28.3"/><path d="m53.5 28.2h3.9v30.9h-48.8v-30.9h27.4"/><path d="m49.5 40.7-4.8 9.5-4.7-9.5z"/><path d="m49.5 10.7v30h-9.5v-30"/><path d="m40 7.1v-2.6c0-1.4 1.1-2.5 2.5-2.5h4.5c1.4 0 2.5 1.1 2.5 2.5v2.5z"/><path d="m20.5 52.2h-6.7l7.6-13.8 3.4 6"/><path d="m37.9 52.2h-12.8l6.4-11.6z"/></g></svg>