<svg id="Layer_1" height="512" viewBox="0 0 24 24" width="512" xmlns="http://www.w3.org/2000/svg" data-name="Layer 1"><path d="m6.133 18.611a1.75 1.75 0 0 1 -1.725-2l.423-2.969a2.781 2.781 0 0 1 .778-1.556l5.891-5.886a2.754 2.754 0 0 1 3.889 0l1.414 1.414a2.753 2.753 0 0 1 0 3.889l-5.892 5.893a2.773 2.773 0 0 1 -1.556.777l-2.97.424a1.808 1.808 0 0 1 -.252.014zm7.318-11.721a1.246 1.246 0 0 0 -.884.365l-5.897 5.893a1.258 1.258 0 0 0 -.354.707l-.423 2.97a.243.243 0 0 0 .07.212.249.249 0 0 0 .212.071l2.97-.424a1.258 1.258 0 0 0 .707-.354l5.893-5.892a1.255 1.255 0 0 0 0-1.769l-1.414-1.414a1.249 1.249 0 0 0 -.884-.365z"/><path d="m20 22.75h-16a2.752 2.752 0 0 1 -2.75-2.75v-16a2.752 2.752 0 0 1 2.75-2.75h16a2.752 2.752 0 0 1 2.75 2.75v16a2.752 2.752 0 0 1 -2.75 2.75zm-16-20a1.252 1.252 0 0 0 -1.25 1.25v16a1.252 1.252 0 0 0 1.25 1.25h16a1.252 1.252 0 0 0 1.25-1.25v-16a1.252 1.252 0 0 0 -1.25-1.25z"/><path d="m19 18.749h-7a.75.75 0 0 1 0-1.5h7a.75.75 0 0 1 0 1.5z"/></svg>