<svg id="layer_1" enable-background="new 0 0 32 32" height="512" viewBox="0 0 32 32" width="512" xmlns="http://www.w3.org/2000/svg"><path d="m20.4000244 11.6699829h6.2299805l-9.0900269-9.0900268v6.2200317c0 1.5800171 1.2800293 2.8699951 2.8600464 2.8699951z"/><path d="m18.4799805 26.2099609c0-1.5999756 1.2399902-2.8899536 2.8099976-2.9799805.1000366-1.5700073 1.3900146-2.8200073 2.9800415-2.8200073 1.4799805 0 2.6999512 1.0700073 2.9400024 2.4800415v-9.2200317h-6.8099976c-2.6800537 0-4.8600464-2.1799927-4.8600464-4.8699951v-6.7999878h-6.7399902c-2.6900024 0-4.8699951 2.1799927-4.8699951 4.8699951v17.3999634c0 2.6900024 2.1799927 4.8700562 4.8699951 4.8700562h12.1099854c-1.3899537-.2700196-2.4299927-1.4700318-2.4299927-2.9300538z"/><path d="m27.065918 25.2070312h-1.7929688v-1.7939453c0-.5527344-.4477539-1-1-1s-1 .4472656-1 1v1.7939453h-1.793457c-.5522461 0-1 .4472656-1 1s.4477539 1 1 1h1.793457v1.7929688c0 .5527344.4477539 1 1 1s1-.4472656 1-1v-1.7929688h1.7929688c.5522461 0 1-.4472656 1-1s-.4477539-1-1-1z"/></svg>