<svg fill="none" height="512" viewBox="0 0 32 32" width="512" xmlns="http://www.w3.org/2000/svg"><g clip-rule="evenodd" fill="rgb(0,0,0)" fill-rule="evenodd"><path d="m20.9393 5.93934c.5858-.58579 1.5356-.58579 2.1214 0l6 5.99996c.5857.5858.5857 1.5356 0 2.1214l-6 6c-.5858.5857-1.5356.5857-2.1214 0-.5857-.5858-.5857-1.5356 0-2.1214l4.9394-4.9393-4.9394-4.93934c-.5857-.58579-.5857-1.53553 0-2.12132z"/><path d="m16 14.5c-2.7848 0-5.4555 1.1062-7.42462 3.0754-1.96913 1.9691-3.07538 4.6398-3.07538 7.4246 0 .8284-.67157 1.5-1.5 1.5s-1.5-.6716-1.5-1.5c0-3.5804 1.42232-7.0142 3.95406-9.5459 2.53174-2.5318 5.96554-3.9541 9.54594-3.9541h12c.8284 0 1.5.6716 1.5 1.5s-.6716 1.5-1.5 1.5z"/></g></svg>